<svg height="512" viewBox="0 0 60 60" width="512" xmlns="http://www.w3.org/2000/svg"><g id="Page-1" fill="none" fill-rule="evenodd"><g id="043---Mining-Game" fill-rule="nonzero" transform="translate(0 -1)"><g id="Icons" transform="translate(0 1)"><rect id="Rectangle-path" fill="#9e9e9e" height="10" rx="1" transform="matrix(.894 .447 -.447 .894 7.403 -11.245)" width="10" x="22.512" y="5.051"/><path id="Shape" d="m33.326 7.369-7.155-3.579c-.2372273-.11873726-.5119133-.13834699-.763602-.05451326-.2516888.08383373-.4597524.26424012-.578398.50151326l-.153.306 5.65 2.826c.493527.24705816.6935867.84723725.447 1.341l-3.426 6.849 1.5.753c.2372273.1187373.5119133.138347.763602.0545133.2516888-.0838338.4597524-.2642402.578398-.5015133l3.584-7.155c.2465867-.49376275.046527-1.09394184-.447-1.341z" fill="#707070"/><path id="Shape" d="m24.829 4.237s-14.702-7.354-23.429.106c-.33047278.22517978-.48824731.6305495-.39695145 1.01988645s.41282619.68231419.80895145.73711355c6.77989883.3803843 13.4033586 2.18634876 19.438 5.3z" fill="#7f8e94"/><path id="Shape" d="m33.773 8.71s14.7 7.354 13.968 18.813c.0144245.3972155-.2156837.7627996-.5800681.9215829-.3643845.1587833-.7888174.0784204-1.0699319-.2025829-4.3712274-5.1972853-9.789033-9.4146552-15.9-12.377z" fill="#7f8e94"/><path id="Shape" d="m33.773 8.71-.673 1.353c3.975 2.537 11.661 8.49 11.66 16.637.519.572.967 1.1 1.331 1.545.2811145.2810033.7055474.3613662 1.0699319.2025829.3643844-.1587833.5944926-.5243674.5800681-.9215829.734-11.462-13.968-18.816-13.968-18.816z" fill="#545c60"/><path id="Shape" d="m29.6431738 1.79130671h2c1.1045695 0 2 .8954305 2 2v2h-6v-2c0-1.1045695.8954305-2 2-2z" fill="#a0522d" transform="matrix(.894 .447 -.447 .894 4.933 -13.307)"/><path id="Shape" d="m13.6503799 12.4864169h6v35.563c0 1.6568542-1.3431458 3-3 3-1.6568543 0-3-1.3431458-3-3z" fill="#a0522d" transform="matrix(.894 .447 -.447 .894 15.97 -4.093)"/><path id="Shape" d="m59 58v-47c-1.8487771.6925613-3.3074387 2.1512229-4 4 0 0-3 0-4 2 2.4438649 4.2721174 2.8118495 9.423903 1 14 0 0 3 5-2 8 0 0-2 7-10 2-4.9456311.2010003-9.2849891 3.356897-11 8 0 0-5-2-7 3 0 0-9-1-11 7h47c.5522847 0 1-.4477153 1-1z" fill="#607d8b"/><path id="Shape" d="m56 13.172v44.828c0 .5522847-.4477153 1-1 1h3c.5522847 0 1-.4477153 1-1v-47c-1.1719581.4506253-2.2060292 1.1992928-3 2.172z" fill="#37474f"/><rect id="Rectangle-path" fill="#ff9801" height="4" rx="1" transform="matrix(.953 .301 -.301 .953 17.651 -12.398)" width="4" x="47.001" y="49"/><g fill="#02a9f4"><rect id="Rectangle-path" height="4" rx="1" transform="matrix(-.953 .301 -.301 -.953 85.228 92.339)" width="4" x="33.49" y="50.745"/><path id="Shape" d="m39 31.816c-1-1.969-5 0-5 1.969s1 3.938 4 2.953 2-2.953 1-4.922z"/></g></g><g id="Icons_copy" fill="#000"><path id="Shape" d="m32.879 2.555-1.789-.895c-1.4815172-.74125473-3.2834346-.14136175-4.025 1.34l-.447.894c-.6405341-.3279391-1.4097568-.27563196-2 .136-3.052-1.374-15.712-6.418-23.87.553-.65627884.55755262-.90832521 1.45771825-.637 2.275.23961197.72046337.90404661 1.21429453 1.663 1.236 6.39620072.36041341 12.6516877 2.0216018 18.384 4.882.0455152.7052761.4609583 1.3337669 1.092 1.652l-15.461 30.912c-.96727287 1.9725756-.16257828 4.3560892 1.80239529 5.3387133s4.35468911.1965388 5.35260471-1.7607133l15.461-30.911c.4741178.2386045 1.0240184.2774973 1.527.108.1590073-.0557544.3104945-.1309941.451-.224 5.7262431 2.8705311 10.8067997 6.8789 14.931 11.78.3404013.4295247.8579467.6805673 1.406.682.1968893-.0009643.3924768-.0319886.58-.092.8177236-.2722604 1.3875078-1.0146825 1.439-1.875.685-10.707-10.939-17.812-13.871-19.426-.0068943-.17965174-.0378364-.357569-.092-.529-.1657621-.50331261-.525793-.91950827-1-1.156l.448-.894c.3559265-.71217137.4141662-1.53661702.1618918-2.29175234-.2522745-.75513531-.7943708-1.37902164-1.5068918-1.73424766zm-4.025 1.345c.1179198-.23902134.3263779-.42107961.5790952-.50575682.2527174-.08467721.5287816-.06496629.7669048.05475682l1.789.9c.2372731.11864556.4176795.32670923.5015133.57839797.0838337.25168873.064224.52637476-.0545133.76360203l-.448.893-3.581-1.794zm-26.807 2.2c6.923-5.913 18.169-1.773 21.422-.38l-2.669 5.344c-5.8597557-2.88244581-12.23457187-4.56988717-18.753-4.964zm9.108 42.121c-.3122717.6516093-.9517354 1.0841147-1.67275845 1.1313809-.721023.0472663-1.41147686-.2980572-1.80614232-.9033236s-.43216693-1.3763491-.09809923-2.0170573l15.461-30.909 1.788.894 1.789.9zm18.145-31.803-.894-.447-2.683-1.343-3.577-1.789 3.579-7.154.893.446 5.366 2.683.894.448-3.578 7.157zm17.443 12.041c-4.2236282-4.9782015-9.3953109-9.0665299-15.214-12.027l2.671-5.345c3.068 1.765 13.126 8.272 12.543 17.372z"/><path id="Shape" d="m59.584 11.188c-.2600084-.1890542-.59574-.239787-.9-.136-1.9252656.7147246-3.4980155 2.1487341-4.387 4-1.117.137-3.26.639-4.192 2.5-.1598528.3203946-.1362053.701805.062 1 2.2861979 3.9996701 2.6177263 8.8252511.9 13.1-.1047289.2851447-.0761039.6022221.078.864.251.426 2.34 4.233-1.656 6.631-.2176726.1302357-.3772529.338835-.446.583-.4071472 1.2473972-1.3119619 2.2709236-2.5 2.828-1.546.592-3.568.124-6.008-1.4-.1597358-.1023485-.3452897-.1571476-.535-.158-.084 0-8.132.093-11.578 7.777-2.815678-.798842-5.7968704.5504064-7.055 3.193-2.336-.031-9.506.464-11.337 7.788-.07448517.2986412-.0072954.6149454.1821557.8575209.1894511.2425756.4800544.3843941.7878443.3844791h47c1.1045695 0 2-.8954305 2-2v-47c.0000793-.3218391-.1547459-.624046-.416-.812zm-1.584 47.812h-45.627c2.316-5.7 9.206-5.041 9.519-5.006.4463278.0486731.8703829-.2060871 1.037-.623.3923137-1.1108747 1.2316402-2.0068618 2.3145568-2.4708061 1.0829165-.4639442 2.3105781-.4534983 3.3854432.0288061.2498503.1003238.5295994.0956595.7759664-.0129377.2463669-.1085972.4385346-.3119513.5330336-.5640623 1.5085242-4.1839255 5.3607579-7.0699561 9.8-7.342 2.891 1.744 5.42 2.22 7.521 1.411 1.6562459-.7094594 2.9479037-2.0687376 3.572-3.759 2.0655834-1.1980766 3.2511142-3.4833713 3.041-5.862-.0873075-.9954667-.3525088-1.9671941-.783-2.869 1.6598672-4.5537309 1.3300247-9.5953499-.909-13.894.7948548-.6560654 1.7894732-1.0218169 2.82-1.037.4306074.0001037.8129281-.2754572.949-.684.381756-1.0815094 1.1007165-2.0118463 2.051-2.654z"/><path id="Shape" d="m50.857 49.441-1.905-.6c-1.0523476-.3340453-2.176313.2478563-2.511 1.3l-.6 1.907c-.3333958 1.0520394.2483739 2.1753026 1.3 2.51l1.905.6c1.0523476.3340453 2.176313-.2478563 2.511-1.3l.6-1.907c.3333958-1.0520394-.2483739-2.1753026-1.3-2.51zm-1.2 3.814-1.907-.6.6-1.907 1.907.6z"/><path id="Shape" d="m38.049 51.887c-.3346974-1.0516261-1.4579606-1.6333958-2.51-1.3l-1.906.6c-1.0516261.3346974-1.6333958 1.4579606-1.3 2.51l.6 1.906c.1593525.5062235.5139345.9280369.98523 1.172037.4712955.244 1.0204166.2900536 1.52577.127963l1.907-.6c1.0516261-.3346974 1.6333958-1.4579606 1.3-2.51zm-3.211 3.113-.6-1.906 1.907-.6.6 1.907z"/><path id="Shape" d="m42 47c-.5522847 0-1 .4477153-1 1v1c0 .5522847.4477153 1 1 1s1-.4477153 1-1v-1c0-.5522847-.4477153-1-1-1z"/><path id="Shape" d="m25.293 54.293-1 1c-.2599566.2510745-.3642126.6228779-.2726972.9725073.0915155.3496295.3645604.6226744.7141899.7141899.3496294.0915154.7214328-.0127406.9725073-.2726972l1-1c.3789722-.3923789.3735524-1.0160848-.0121814-1.4018186s-1.0094397-.3911536-1.4018186-.0121814z"/><path id="Shape" d="m54.707 43.293c-.3923789-.3789722-1.0160848-.3735524-1.4018186.0121814s-.3911536 1.0094397-.0121814 1.4018186l1 1c.3923789.3789722 1.0160848.3735524 1.4018186-.0121814s.3911536-1.0094397.0121814-1.4018186z"/><path id="Shape" d="m36.583 31.116c-1.723.413-3.583 1.933-3.583 3.668-.1008876 1.3772405.470182 2.7183042 1.533 3.6.5894097.4138268 1.296038.627638 2.016.61.6003296-.0089082 1.195425-.1132102 1.763-.309 1.0799599-.2458729 1.9912401-.9660782 2.48-1.96.591-1.429-.2-2.989-.9-4.366-.6514143-1.166855-2.0504546-1.6923936-3.309-1.243zm2.361 4.848c-.163.393-.773.666-1.256.824-.6311029.2855572-1.3560925.2778718-1.981-.021-.5213838-.5213618-.7809462-1.2493849-.707-1.983 0-.555.945-1.458 2.049-1.722.1564256-.0389443.3168151-.059748.478-.062.2297392-.0293759.4558711.0761005.581.271.504.99 1.076 2.114.836 2.693z"/></g></g></g></svg>